<svg xmlns="http://www.w3.org/2000/svg" xmlns:xlink="http://www.w3.org/1999/xlink" width="1080" zoomAndPan="magnify" viewBox="0 0 810 809.999993" height="1080" preserveAspectRatio="xMidYMid meet" version="1.0"><defs><clipPath id="65eeaa7f41"><path d="M 138 146.136719 L 672 146.136719 L 672 663.636719 L 138 663.636719 Z M 138 146.136719 " clip-rule="nonzero"/></clipPath></defs><g clip-path="url(#65eeaa7f41)"><path fill="#282828" d="M 671.503906 625.347656 C 665.652344 603.316406 654.296875 583.011719 638.125 566.488281 C 638.125 566.488281 638.125 566.488281 637.78125 566.144531 L 546.933594 486.289062 L 552.785156 480.785156 C 555.195312 478.71875 556.226562 475.621094 556.226562 472.523438 C 556.226562 469.425781 554.851562 466.328125 552.785156 464.261719 L 549 460.476562 L 553.816406 455.65625 C 555.882812 453.589844 555.882812 450.492188 553.816406 448.429688 C 551.753906 446.363281 548.65625 446.363281 546.589844 448.429688 L 537.988281 457.035156 L 532.484375 462.539062 C 530.417969 464.605469 530.417969 467.703125 532.484375 469.769531 C 533.515625 470.800781 534.890625 471.144531 536.269531 471.144531 C 537.644531 471.144531 539.019531 470.800781 540.054688 469.769531 L 542.117188 467.703125 L 545.902344 471.488281 C 546.246094 471.835938 546.246094 472.179688 546.246094 472.523438 C 546.246094 472.867188 546.246094 473.210938 545.902344 473.554688 L 509.425781 509.695312 C 508.738281 510.382812 507.707031 510.382812 507.363281 509.695312 L 503.578125 505.910156 L 513.554688 495.929688 C 515.621094 493.863281 515.621094 490.765625 513.554688 488.699219 C 511.492188 486.632812 508.394531 486.632812 506.332031 488.699219 L 483.960938 510.730469 C 481.898438 512.792969 481.898438 515.890625 483.960938 517.957031 C 484.996094 518.988281 486.371094 519.332031 487.746094 519.332031 C 489.125 519.332031 490.5 518.988281 491.535156 517.957031 L 496.351562 513.136719 L 500.136719 516.925781 C 502.542969 519.332031 505.640625 520.367188 508.738281 520.367188 C 511.835938 520.367188 514.933594 519.332031 516.996094 516.925781 L 522.503906 511.417969 L 601.992188 603.316406 C 609.90625 611.578125 619.199219 618.460938 628.832031 624.3125 C 638.8125 630.164062 649.136719 634.296875 660.148438 637.394531 C 660.835938 637.738281 661.867188 637.738281 662.558594 637.738281 C 664.964844 637.738281 667.375 636.703125 669.4375 634.984375 C 671.503906 632.230469 672.191406 628.445312 671.503906 625.347656 Z M 633.308594 615.019531 C 624.359375 609.859375 615.757812 603.316406 608.875 596.089844 L 529.042969 504.1875 L 539.707031 493.863281 L 630.898438 574.40625 C 645.351562 589.207031 655.675781 607.449219 661.179688 627.066406 C 651.203125 623.96875 641.910156 619.839844 633.308594 615.019531 Z M 494.285156 430.875 C 492.222656 428.808594 492.222656 425.710938 494.285156 423.648438 L 508.738281 409.535156 C 510.804688 407.46875 513.902344 407.46875 515.964844 409.535156 C 518.03125 411.597656 518.03125 414.699219 515.964844 416.761719 L 501.511719 430.875 C 500.480469 431.90625 499.105469 432.25 497.726562 432.25 C 496.351562 432.59375 495.320312 431.90625 494.285156 430.875 Z M 520.78125 449.804688 C 519.75 450.839844 518.375 451.183594 516.996094 451.183594 C 515.621094 451.183594 514.246094 450.839844 513.210938 449.804688 C 511.148438 447.742188 511.148438 444.640625 513.210938 442.578125 L 527.664062 428.464844 C 529.730469 426.398438 532.828125 426.398438 534.890625 428.464844 C 536.957031 430.53125 536.957031 433.628906 534.890625 435.695312 Z M 495.664062 415.730469 C 494.285156 415.730469 492.910156 415.386719 491.878906 414.351562 C 489.8125 412.289062 489.8125 409.191406 491.878906 407.125 L 510.117188 388.882812 C 512.179688 386.816406 515.277344 386.816406 517.339844 388.882812 C 519.40625 390.949219 519.40625 394.046875 517.339844 396.109375 L 499.105469 414.351562 C 498.414062 415.042969 497.039062 415.730469 495.664062 415.730469 Z M 511.148438 426.054688 L 529.386719 407.8125 C 531.449219 405.75 534.546875 405.75 536.613281 407.8125 C 538.675781 409.878906 538.675781 412.976562 536.613281 415.042969 L 518.375 433.285156 C 517.339844 434.316406 515.964844 434.660156 514.589844 434.660156 C 513.210938 434.660156 511.835938 434.316406 510.804688 433.285156 C 509.082031 431.21875 509.082031 427.777344 511.148438 426.054688 Z M 440.261719 339.664062 L 425.808594 353.773438 C 424.777344 354.808594 423.398438 355.152344 422.023438 355.152344 C 420.644531 355.152344 419.269531 354.808594 418.238281 353.773438 C 416.171875 351.710938 416.171875 348.613281 418.238281 346.546875 L 432.691406 332.433594 C 434.753906 330.367188 437.851562 330.367188 439.917969 332.433594 C 442.324219 334.5 441.980469 337.941406 440.261719 339.664062 Z M 460.5625 331.058594 C 462.628906 333.121094 462.628906 336.21875 460.5625 338.285156 L 442.324219 356.527344 C 441.292969 357.5625 439.917969 357.90625 438.539062 357.90625 C 437.164062 357.90625 435.789062 357.5625 434.753906 356.527344 C 432.691406 354.460938 432.691406 351.363281 434.753906 349.300781 L 452.992188 331.058594 C 455.402344 328.992188 458.5 328.992188 460.5625 331.058594 Z M 459.1875 358.9375 L 444.734375 373.050781 C 443.703125 374.082031 442.324219 374.425781 440.949219 374.425781 C 439.574219 374.425781 438.195312 374.082031 437.164062 373.050781 C 435.097656 370.984375 435.097656 367.886719 437.164062 365.820312 L 451.617188 351.710938 C 453.679688 349.644531 456.777344 349.644531 458.84375 351.710938 C 461.25 353.773438 461.25 356.871094 459.1875 358.9375 Z M 479.488281 349.988281 C 481.554688 352.054688 481.554688 355.152344 479.488281 357.214844 L 461.25 375.457031 C 460.21875 376.492188 458.84375 376.835938 457.464844 376.835938 C 456.089844 376.835938 454.714844 376.492188 453.679688 375.457031 C 451.617188 373.394531 451.617188 370.296875 453.679688 368.230469 L 471.917969 349.988281 C 474.328125 347.921875 477.425781 347.921875 479.488281 349.988281 Z M 460.21875 393.703125 C 458.84375 393.703125 457.464844 393.355469 456.433594 392.324219 C 454.371094 390.257812 454.371094 387.160156 456.433594 385.097656 L 470.886719 370.984375 C 472.953125 368.917969 476.046875 368.917969 478.113281 370.984375 C 480.175781 373.050781 480.175781 376.148438 478.113281 378.210938 L 463.660156 392.324219 C 462.628906 393.355469 461.25 393.703125 460.21875 393.703125 Z M 498.414062 376.835938 L 480.175781 395.078125 C 479.144531 396.109375 477.769531 396.453125 476.390625 396.453125 C 475.015625 396.453125 473.640625 396.109375 472.605469 395.078125 C 470.542969 393.011719 470.542969 389.914062 472.605469 387.851562 L 490.84375 369.609375 C 492.910156 367.542969 496.007812 367.542969 498.070312 369.609375 C 500.480469 371.328125 500.480469 374.769531 498.414062 376.835938 Z M 479.144531 412.976562 C 477.769531 412.976562 476.390625 412.632812 475.359375 411.597656 C 473.296875 409.535156 473.296875 406.4375 475.359375 404.371094 L 489.8125 390.257812 C 491.878906 388.195312 494.972656 388.195312 497.039062 390.257812 C 499.105469 392.324219 499.105469 395.421875 497.039062 397.488281 L 482.585938 411.597656 C 481.554688 412.632812 480.523438 412.976562 479.144531 412.976562 Z M 530.074219 444.988281 L 548.3125 426.746094 C 550.375 424.679688 553.472656 424.679688 555.539062 426.746094 C 557.601562 428.808594 557.601562 431.90625 555.539062 433.972656 L 537.300781 452.214844 C 536.269531 453.246094 534.890625 453.589844 533.515625 453.589844 C 532.136719 453.589844 530.761719 453.246094 529.730469 452.214844 C 528.007812 450.492188 528.007812 447.050781 530.074219 444.988281 Z M 445.421875 471.835938 L 459.875 457.722656 C 461.941406 455.65625 465.035156 455.65625 467.101562 457.722656 C 469.164062 459.789062 469.164062 462.886719 467.101562 464.949219 L 452.648438 479.0625 C 451.617188 480.09375 450.238281 480.4375 448.863281 480.4375 C 447.488281 480.4375 446.109375 480.09375 445.078125 479.0625 C 443.359375 476.996094 443.359375 473.898438 445.421875 471.835938 Z M 464.347656 491.109375 L 478.800781 476.996094 C 480.867188 474.933594 483.960938 474.933594 486.027344 476.996094 C 488.09375 479.0625 488.09375 482.160156 486.027344 484.226562 L 471.574219 498.335938 C 470.542969 499.371094 469.167969 499.714844 467.789062 499.714844 C 466.414062 499.714844 465.035156 499.371094 464.003906 498.335938 C 462.285156 496.617188 462.285156 493.175781 464.347656 491.109375 Z M 424.429688 480.785156 C 422.367188 478.71875 422.367188 475.621094 424.429688 473.554688 L 442.667969 455.3125 C 444.734375 453.246094 447.832031 453.246094 449.894531 455.3125 C 451.960938 457.378906 451.960938 460.476562 449.894531 462.539062 L 431.65625 480.785156 C 430.625 481.816406 429.25 482.160156 427.871094 482.160156 C 426.839844 482.160156 425.464844 481.816406 424.429688 480.785156 Z M 443.703125 500.058594 C 441.636719 497.992188 441.636719 494.894531 443.703125 492.832031 L 461.941406 474.585938 C 464.003906 472.523438 467.101562 472.523438 469.167969 474.585938 C 471.230469 476.652344 471.230469 479.75 469.167969 481.816406 L 450.929688 500.058594 C 449.894531 501.089844 448.519531 501.433594 447.144531 501.433594 C 446.109375 501.433594 444.734375 500.746094 443.703125 500.058594 Z M 348.726562 404.027344 C 346.664062 401.960938 346.664062 398.863281 348.726562 396.800781 L 364.898438 380.964844 L 361.113281 377.179688 C 356.640625 372.359375 356.640625 365.132812 361.113281 360.3125 L 397.589844 324.171875 C 400 322.109375 402.753906 320.730469 405.847656 320.730469 C 408.945312 320.730469 412.042969 322.109375 414.109375 324.171875 L 417.894531 327.960938 L 434.410156 311.78125 C 436.476562 309.71875 439.574219 309.71875 441.636719 311.78125 C 443.703125 313.847656 443.703125 316.945312 441.636719 319.011719 L 412.730469 347.578125 C 411.699219 348.613281 410.324219 348.957031 408.945312 348.957031 C 407.570312 348.957031 406.195312 348.613281 405.160156 347.578125 C 403.097656 345.511719 403.097656 342.414062 405.160156 340.351562 L 410.667969 334.84375 L 406.882812 331.058594 C 406.539062 330.714844 406.195312 330.714844 405.847656 330.714844 C 405.503906 330.714844 405.160156 330.714844 404.816406 331.058594 L 368.339844 367.542969 C 367.652344 368.230469 367.652344 368.917969 368.339844 369.609375 L 372.125 373.394531 C 374.191406 372.015625 376.945312 372.359375 378.664062 374.082031 C 380.730469 376.148438 380.730469 379.246094 378.664062 381.308594 L 355.953125 403.683594 C 354.921875 404.714844 353.542969 405.058594 352.167969 405.058594 C 351.136719 405.402344 349.757812 405.058594 348.726562 404.027344 Z M 391.050781 380.964844 C 393.117188 383.03125 393.117188 386.128906 391.050781 388.195312 L 376.601562 402.304688 C 375.566406 403.339844 374.191406 403.683594 372.816406 403.683594 C 371.4375 403.683594 370.0625 403.339844 369.03125 402.304688 C 366.964844 400.242188 366.964844 397.144531 369.03125 395.078125 L 383.480469 380.964844 C 385.546875 378.902344 388.988281 379.246094 391.050781 380.964844 Z M 367.652344 422.957031 C 365.589844 420.894531 365.589844 417.796875 367.652344 415.730469 L 385.890625 397.488281 C 387.957031 395.421875 391.050781 395.421875 393.117188 397.488281 C 395.183594 399.550781 395.183594 402.652344 393.117188 404.714844 L 374.878906 422.957031 C 373.847656 423.992188 372.46875 424.335938 371.09375 424.335938 C 370.0625 424.679688 368.683594 423.992188 367.652344 422.957031 Z M 409.980469 400.242188 C 412.042969 402.304688 412.042969 405.402344 409.980469 407.46875 L 395.527344 421.925781 C 394.492188 422.957031 393.117188 423.300781 391.742188 423.300781 C 390.363281 423.300781 388.988281 422.957031 387.957031 421.925781 C 385.890625 419.859375 385.890625 416.761719 387.957031 414.699219 L 402.410156 400.585938 C 404.472656 398.175781 407.914062 398.175781 409.980469 400.242188 Z M 386.578125 442.234375 C 384.515625 440.167969 384.515625 437.070312 386.578125 435.003906 L 404.816406 416.761719 C 406.882812 414.699219 409.980469 414.699219 412.042969 416.761719 C 414.109375 418.828125 414.109375 421.925781 412.042969 423.992188 L 393.804688 442.234375 C 392.773438 443.265625 391.398438 443.609375 390.019531 443.609375 C 388.988281 443.609375 387.613281 443.265625 386.578125 442.234375 Z M 407.226562 433.628906 L 421.679688 419.515625 C 423.742188 417.449219 426.839844 417.449219 428.90625 419.515625 C 430.96875 421.582031 430.96875 424.679688 428.90625 426.746094 L 414.453125 440.855469 C 413.417969 441.890625 412.042969 442.234375 410.667969 442.234375 C 409.289062 442.234375 407.914062 441.890625 406.882812 440.855469 C 405.160156 438.792969 405.160156 435.695312 407.226562 433.628906 Z M 405.503906 461.507812 C 403.441406 459.441406 403.441406 456.34375 405.503906 454.28125 L 423.742188 436.039062 C 425.808594 433.972656 428.90625 433.972656 430.96875 436.039062 C 433.035156 438.101562 433.035156 441.199219 430.96875 443.265625 L 412.730469 461.507812 C 411.699219 462.539062 410.324219 462.886719 408.945312 462.886719 C 407.914062 462.886719 406.539062 462.539062 405.503906 461.507812 Z M 426.152344 452.902344 L 440.605469 438.792969 C 442.667969 436.726562 445.765625 436.726562 447.832031 438.792969 C 449.894531 440.855469 449.894531 443.953125 447.832031 446.019531 L 433.378906 460.132812 C 432.347656 461.164062 430.96875 461.507812 429.59375 461.507812 C 428.214844 461.507812 426.839844 461.164062 425.808594 460.132812 C 424.085938 458.066406 424.085938 454.625 426.152344 452.902344 Z M 462.628906 518.988281 C 460.5625 516.925781 460.5625 513.828125 462.628906 511.761719 L 480.867188 493.519531 C 482.929688 491.453125 486.027344 491.453125 488.09375 493.519531 C 490.15625 495.582031 490.15625 498.679688 488.09375 500.746094 L 469.855469 518.988281 C 468.820312 520.023438 467.445312 520.367188 466.070312 520.367188 C 465.035156 520.710938 463.660156 520.023438 462.628906 518.988281 Z M 392.773438 366.164062 L 388.988281 370.296875 C 387.957031 371.328125 386.578125 371.671875 385.203125 371.671875 C 383.828125 371.671875 382.449219 371.328125 381.417969 370.296875 C 379.351562 368.230469 379.351562 365.132812 381.417969 363.066406 L 385.546875 359.28125 C 387.613281 357.214844 390.707031 357.214844 392.773438 359.28125 C 394.835938 361.003906 394.835938 364.445312 392.773438 366.164062 Z M 407.570312 369.953125 C 406.195312 369.953125 404.816406 369.609375 403.785156 368.574219 C 401.71875 366.507812 401.71875 363.410156 403.785156 361.347656 L 407.914062 357.5625 C 409.980469 355.496094 413.074219 355.496094 415.140625 357.5625 C 417.207031 359.625 417.207031 362.722656 415.140625 364.789062 L 411.011719 368.574219 C 409.980469 369.609375 408.945312 369.953125 407.570312 369.953125 Z M 422.710938 380.277344 L 426.839844 376.492188 C 428.90625 374.425781 432 374.425781 434.066406 376.492188 C 436.132812 378.554688 436.132812 381.65625 434.066406 383.71875 L 429.9375 387.503906 C 428.90625 388.539062 427.527344 388.882812 426.152344 388.882812 C 424.777344 388.882812 423.398438 388.539062 422.367188 387.503906 C 420.644531 385.441406 420.644531 382.34375 422.710938 380.277344 Z M 441.636719 399.207031 L 445.765625 395.421875 C 447.832031 393.355469 450.929688 393.355469 452.992188 395.421875 C 455.058594 397.488281 455.058594 400.585938 452.992188 402.652344 L 448.863281 406.4375 C 448.175781 407.8125 446.796875 408.15625 445.421875 408.15625 C 444.046875 408.15625 442.667969 407.8125 441.636719 406.78125 C 439.574219 404.714844 439.574219 401.273438 441.636719 399.207031 Z M 471.917969 421.925781 L 467.789062 425.710938 C 466.757812 426.746094 465.378906 427.089844 464.003906 427.089844 C 462.628906 427.089844 461.25 426.746094 460.21875 425.710938 C 458.15625 423.648438 458.15625 420.546875 460.21875 418.484375 L 464.347656 414.699219 C 466.414062 412.632812 469.511719 412.632812 471.574219 414.699219 C 473.984375 416.761719 473.984375 419.859375 471.917969 421.925781 Z M 490.84375 441.199219 L 486.714844 444.988281 C 485.683594 446.019531 484.308594 446.363281 482.929688 446.363281 C 481.554688 446.363281 480.175781 446.019531 479.144531 444.988281 C 477.082031 442.921875 477.082031 439.824219 479.144531 437.757812 L 483.273438 433.972656 C 485.339844 431.90625 488.4375 431.90625 490.5 433.972656 C 492.910156 435.695312 492.910156 439.136719 490.84375 441.199219 Z M 509.769531 460.132812 L 505.640625 463.917969 C 504.609375 464.949219 503.234375 465.292969 501.855469 465.292969 C 500.480469 465.292969 499.105469 464.949219 498.070312 463.917969 C 496.007812 461.851562 496.007812 458.753906 498.070312 456.691406 L 502.199219 452.902344 C 504.265625 450.839844 507.363281 450.839844 509.425781 452.902344 C 511.835938 454.96875 511.835938 458.410156 509.769531 460.132812 Z M 517.339844 483.191406 C 515.277344 481.128906 515.277344 478.03125 517.339844 475.964844 L 521.472656 472.179688 C 523.535156 470.113281 526.632812 470.113281 528.699219 472.179688 C 530.761719 474.242188 530.761719 477.339844 528.699219 479.40625 L 524.566406 483.191406 C 523.535156 484.226562 522.160156 484.570312 520.78125 484.570312 C 519.75 484.914062 518.375 484.226562 517.339844 483.191406 Z M 412.386719 386.128906 L 408.257812 389.914062 C 407.226562 390.949219 405.847656 391.292969 404.472656 391.292969 C 403.097656 391.292969 401.71875 390.949219 400.6875 389.914062 C 398.625 387.851562 398.625 384.753906 400.6875 382.6875 L 404.816406 378.902344 C 406.882812 376.835938 409.980469 376.835938 412.042969 378.902344 C 414.453125 380.621094 414.453125 384.0625 412.386719 386.128906 Z M 431.3125 405.058594 L 427.183594 408.847656 C 426.152344 409.878906 424.777344 410.222656 423.398438 410.222656 C 422.023438 410.222656 420.644531 409.878906 419.613281 408.847656 C 417.550781 406.78125 417.550781 403.683594 419.613281 401.617188 L 424.085938 397.832031 C 426.152344 395.765625 429.25 395.765625 431.3125 397.832031 C 433.378906 399.898438 433.378906 403.339844 431.3125 405.058594 Z M 450.238281 424.335938 L 446.109375 428.121094 C 445.078125 429.152344 443.703125 429.496094 442.324219 429.496094 C 440.949219 429.496094 439.574219 429.152344 438.539062 428.121094 C 436.476562 426.054688 436.476562 422.957031 438.539062 420.894531 L 442.667969 417.105469 C 444.734375 415.042969 447.832031 415.042969 449.894531 417.105469 C 452.304688 419.171875 452.304688 422.269531 450.238281 424.335938 Z M 469.167969 443.609375 L 465.378906 447.394531 C 464.347656 448.429688 462.972656 448.773438 461.59375 448.773438 C 460.21875 448.773438 458.84375 448.429688 457.808594 447.394531 C 455.746094 445.332031 455.746094 442.234375 457.808594 440.167969 L 461.941406 436.382812 C 464.003906 434.316406 467.101562 434.316406 469.167969 436.382812 C 471.230469 438.101562 471.230469 441.542969 469.167969 443.609375 Z M 488.09375 462.539062 L 483.960938 466.328125 C 482.929688 467.359375 481.554688 467.703125 480.175781 467.703125 C 478.800781 467.703125 477.425781 467.359375 476.390625 466.328125 C 474.328125 464.261719 474.328125 461.164062 476.390625 459.097656 L 480.523438 455.3125 C 482.585938 453.246094 485.683594 453.246094 487.75 455.3125 C 490.15625 457.378906 490.15625 460.476562 488.09375 462.539062 Z M 495.664062 485.601562 C 493.597656 483.535156 493.597656 480.4375 495.664062 478.375 L 499.792969 474.585938 C 501.855469 472.523438 504.953125 472.523438 507.019531 474.585938 C 509.082031 476.652344 509.082031 479.75 507.019531 481.816406 L 502.890625 485.601562 C 501.855469 486.632812 500.480469 486.980469 499.105469 486.980469 C 498.070312 487.324219 496.695312 486.632812 495.664062 485.601562 Z M 276.808594 309.71875 C 295.390625 311.4375 314.316406 313.160156 332.210938 319.011719 C 334.960938 319.699219 336.339844 322.796875 335.652344 325.550781 C 334.960938 327.617188 332.898438 329.335938 330.832031 329.335938 C 330.488281 329.335938 329.800781 329.335938 329.457031 328.992188 C 312.59375 323.828125 294.011719 322.109375 276.121094 320.386719 C 266.484375 319.355469 256.503906 318.667969 247.214844 316.945312 C 216.933594 312.125 195.253906 297.324219 186.304688 274.609375 C 185.273438 271.855469 186.648438 268.757812 189.058594 267.726562 C 191.8125 266.691406 194.910156 268.070312 195.941406 270.480469 C 206.265625 296.292969 233.449219 303.867188 248.933594 306.273438 C 257.539062 307.996094 267.171875 308.683594 276.808594 309.71875 Z M 339.78125 269.789062 C 325.328125 268.070312 310.1875 269.445312 295.734375 271.167969 C 290.917969 271.855469 286.441406 272.199219 281.625 272.542969 C 272.679688 273.230469 261.324219 274.265625 249.621094 274.265625 C 248.246094 274.265625 246.871094 274.265625 245.148438 274.265625 C 244.117188 274.265625 242.742188 274.265625 241.363281 274.265625 C 225.878906 274.265625 202.480469 273.921875 195.597656 256.023438 C 194.566406 253.269531 195.941406 250.171875 198.351562 249.136719 C 201.101562 248.105469 204.199219 249.484375 205.230469 251.890625 C 209.707031 263.25 228.976562 263.59375 241.707031 263.59375 C 243.085938 263.59375 244.460938 263.59375 245.492188 263.59375 C 258.226562 263.9375 270.957031 262.90625 280.59375 261.875 C 285.066406 261.53125 289.882812 260.839844 294.355469 260.496094 C 309.5 258.777344 325.328125 257.054688 340.8125 259.121094 C 347.351562 259.808594 353.199219 261.53125 358.707031 263.59375 C 361.460938 264.628906 362.835938 267.726562 361.804688 270.480469 C 360.769531 273.230469 357.671875 274.609375 355.265625 273.578125 C 350.449219 271.855469 345.285156 270.824219 339.78125 269.789062 Z M 500.136719 652.539062 C 477.769531 651.160156 454.714844 650.128906 433.378906 642.210938 C 409.632812 633.605469 392.773438 617.429688 387.265625 598.5 C 383.828125 586.796875 383.828125 574.75 383.828125 561.667969 C 383.828125 550.65625 383.828125 538.953125 381.417969 527.59375 C 377.289062 508.320312 362.835938 498.335938 348.726562 488.699219 C 346.664062 487.324219 344.597656 485.945312 342.53125 484.226562 C 331.519531 476.308594 323.605469 468.390625 321.542969 457.035156 C 320.164062 450.148438 322.574219 443.265625 324.984375 435.695312 C 327.734375 427.777344 330.488281 419.859375 329.113281 410.566406 C 327.390625 398.519531 318.445312 387.160156 305.023438 380.621094 C 295.734375 376.148438 285.753906 374.082031 276.121094 372.015625 C 274.054688 371.671875 272.335938 371.328125 270.269531 370.984375 C 242.742188 365.132812 221.40625 355.496094 205.230469 342.414062 C 188.371094 328.304688 177.359375 309.71875 175.292969 290.785156 C 175.636719 287 176.328125 283.214844 176.671875 279.773438 C 179.769531 260.496094 190.089844 223.667969 221.75 194.410156 C 263.386719 156.894531 312.59375 156.894531 330.832031 156.894531 C 331.175781 156.894531 331.175781 156.894531 331.519531 156.894531 C 360.425781 156.894531 404.472656 164.464844 450.238281 200.605469 C 452.992188 202.671875 457.464844 206.457031 462.285156 211.277344 C 487.402344 235.714844 503.921875 270.132812 510.804688 313.160156 C 511.148438 315.570312 513.554688 317.632812 515.964844 317.632812 C 516.308594 317.632812 516.652344 317.632812 516.652344 317.632812 C 519.40625 317.289062 521.472656 314.535156 521.125 311.78125 C 513.902344 266.347656 496.351562 229.863281 469.511719 204.046875 C 464.003906 198.886719 459.53125 195.097656 456.433594 192.691406 C 456.433594 192.691406 456.089844 192.34375 456.089844 192.34375 C 408.257812 154.484375 361.460938 146.566406 330.832031 146.566406 C 313.285156 146.566406 259.601562 146.566406 215.554688 186.839844 C 182.175781 217.128906 171.164062 255.332031 167.378906 276.328125 C 149.832031 292.507812 140.195312 313.160156 138.820312 337.253906 C 137.441406 357.5625 140.195312 373.738281 147.421875 389.226562 C 149.140625 393.355469 151.550781 396.800781 153.617188 400.585938 C 157.746094 407.46875 161.1875 414.007812 162.21875 420.894531 C 163.25 428.808594 160.496094 437.414062 157.746094 446.363281 C 153.617188 458.753906 149.484375 471.488281 155.335938 483.882812 C 159.464844 492.484375 167.035156 497.648438 174.261719 502.8125 C 178.390625 505.566406 182.175781 508.320312 185.273438 511.417969 C 197.316406 523.121094 198.351562 544.804688 187.683594 557.539062 C 184.242188 561.667969 180.113281 564.765625 175.636719 568.210938 C 172.542969 570.617188 169.445312 573.027344 166.691406 575.78125 C 156.710938 585.074219 152.582031 596.089844 154.992188 605.726562 C 155.679688 608.136719 157.746094 609.855469 160.152344 609.855469 C 160.496094 609.855469 160.839844 609.855469 161.53125 609.855469 C 164.28125 609.167969 166.003906 606.414062 165.316406 603.660156 C 163.25 594.710938 171.507812 586.109375 174.261719 583.699219 C 176.671875 581.289062 179.421875 579.222656 182.519531 576.8125 C 187.339844 573.027344 192.15625 569.585938 195.941406 564.765625 C 210.050781 547.558594 208.671875 520.023438 192.84375 504.53125 C 189.058594 500.746094 184.585938 497.648438 180.457031 494.894531 C 173.917969 490.421875 167.722656 486.289062 164.972656 480.09375 C 160.839844 471.488281 163.9375 461.164062 167.722656 450.148438 C 170.820312 440.511719 173.917969 430.53125 172.542969 420.203125 C 171.507812 410.910156 167.035156 403.339844 162.5625 395.765625 C 160.496094 392.324219 158.433594 388.882812 157.054688 385.441406 C 150.519531 370.640625 148.109375 356.527344 149.140625 337.597656 C 150.175781 321.074219 155.335938 306.273438 164.972656 293.882812 C 164.28125 300.078125 164.28125 305.929688 164.28125 309.027344 C 164.625 334.15625 190.089844 368.230469 193.53125 372.707031 C 194.910156 376.148438 204.199219 399.207031 189.746094 432.59375 C 188.371094 435.347656 188.371094 438.792969 189.746094 441.542969 C 191.125 444.296875 193.53125 446.707031 196.628906 447.742188 C 201.792969 449.460938 209.363281 451.183594 218.308594 450.492188 L 220.027344 467.359375 C 220.71875 472.179688 223.46875 476.308594 227.945312 478.03125 L 234.480469 480.785156 L 234.136719 482.503906 C 233.105469 488.699219 236.890625 494.550781 242.394531 496.617188 L 258.226562 502.46875 C 258.570312 504.1875 258.570312 505.910156 258.914062 508.320312 C 260.289062 519.675781 269.925781 528.625 280.9375 528.625 C 280.9375 528.625 281.28125 528.625 281.28125 528.625 C 289.882812 528.625 300.550781 526.90625 318.101562 508.320312 C 320.855469 505.222656 329.800781 499.371094 339.089844 494.550781 C 340.46875 495.582031 341.5 496.273438 342.875 497.304688 C 355.953125 506.253906 367.996094 514.859375 371.09375 530.003906 C 373.160156 540.328125 373.160156 550.65625 373.160156 562.015625 C 373.160156 575.09375 373.160156 588.515625 376.945312 601.597656 C 383.480469 623.96875 402.753906 642.554688 429.59375 652.195312 C 452.304688 660.453125 476.046875 661.832031 499.105469 663.207031 C 499.105469 663.207031 499.449219 663.207031 499.449219 663.207031 C 502.199219 663.207031 504.609375 661.144531 504.609375 658.390625 C 505.296875 654.949219 502.890625 652.539062 500.136719 652.539062 Z M 310.53125 501.089844 C 294.703125 517.613281 286.785156 517.957031 281.28125 517.957031 C 275.085938 517.957031 269.925781 513.136719 269.238281 506.941406 C 268.894531 502.125 268.203125 497.992188 268.203125 497.992188 C 267.859375 495.929688 266.828125 494.550781 264.761719 493.863281 L 245.835938 486.980469 C 244.804688 486.632812 243.773438 485.257812 244.117188 484.226562 L 244.804688 478.375 C 245.148438 475.964844 243.773438 473.554688 241.707031 472.867188 L 231.382812 468.738281 C 230.351562 468.390625 230.007812 467.359375 229.664062 466.671875 L 227.253906 444.644531 C 227.253906 443.265625 226.222656 441.890625 225.191406 441.199219 C 224.160156 440.511719 222.78125 439.824219 221.0625 440.167969 C 212.113281 441.542969 203.855469 439.824219 199.039062 438.445312 C 198.695312 438.445312 198.695312 438.101562 198.695312 438.101562 C 198.695312 437.757812 198.695312 437.757812 198.695312 437.414062 C 216.242188 397.488281 202.824219 369.609375 202.136719 368.230469 C 202.136719 367.886719 201.792969 367.542969 201.445312 367.542969 C 201.101562 367.199219 186.648438 348.613281 179.078125 329.335938 C 184.242188 337.253906 190.78125 344.480469 198.695312 351.019531 C 216.242188 365.476562 238.957031 375.457031 268.203125 382 C 270.269531 382.34375 271.988281 382.6875 274.054688 383.375 C 283.34375 385.441406 292.292969 387.160156 300.550781 390.949219 C 310.875 396.109375 317.757812 404.371094 318.789062 412.976562 C 319.820312 419.515625 317.414062 426.398438 315.003906 433.285156 C 312.25 441.542969 309.5 450.148438 311.21875 459.789062 C 313.628906 472.523438 320.855469 481.128906 329.800781 488.355469 C 321.886719 492.140625 313.972656 497.648438 310.53125 501.089844 Z M 310.53125 501.089844 " fill-opacity="1" fill-rule="nonzero"/></g></svg>