<svg xmlns="http://www.w3.org/2000/svg" xmlns:xlink="http://www.w3.org/1999/xlink" width="1080" zoomAndPan="magnify" viewBox="0 0 810 809.999993" height="1080" preserveAspectRatio="xMidYMid meet" version="1.0"><defs><clipPath id="8280e00108"><path d="M 209 377 L 696.59375 377 L 696.59375 641.824219 L 209 641.824219 Z M 209 377 " clip-rule="nonzero"/></clipPath><clipPath id="cf021c33be"><path d="M 116 167.824219 L 696.59375 167.824219 L 696.59375 342 L 116 342 Z M 116 167.824219 " clip-rule="nonzero"/></clipPath></defs><g clip-path="url(#8280e00108)"><path fill="#100f0d" d="M 231.679688 474.214844 C 231.679688 474.214844 224.992188 498.726562 209.394531 518.777344 C 209.394531 518.777344 228.59375 506.539062 244.46875 496.511719 C 243.699219 496.996094 236.988281 519.410156 234.863281 522.933594 C 234.859375 522.941406 234.855469 522.945312 234.851562 522.957031 C 230.023438 530.90625 221.460938 536.253906 219.152344 545.019531 C 234.140625 538.929688 258.203125 520.855469 267.046875 506.542969 C 262.859375 513.320312 263.566406 528.160156 261.226562 536.089844 C 256.746094 551.300781 249.320312 565.382812 238.683594 577.207031 C 247.53125 571.125 296.925781 518.183594 289.617188 508.195312 C 289.617188 508.195312 305.488281 529.90625 268.757812 586.691406 C 283.414062 564.027344 304.023438 543.105469 314.6875 518.226562 C 313.765625 520.378906 321.542969 534.988281 322.339844 537.53125 C 328.210938 556.351562 330.078125 576.03125 329.308594 595.667969 C 336.015625 574.824219 343.511719 543.582031 339.761719 521.5625 C 345.292969 554.066406 351.605469 600.238281 374.105469 625.402344 C 365.175781 601.441406 360.492188 576.0625 360.742188 550.476562 C 360.847656 539.738281 362.753906 525.507812 373.539062 521.046875 C 369.0625 522.902344 384.785156 579.667969 386.71875 585.527344 C 393.550781 606.242188 403.503906 625.355469 417.882812 641.796875 C 405.414062 616.476562 382.527344 556.589844 407.4375 532.4375 C 402.269531 537.453125 414.5625 573.902344 416.742188 579.695312 C 423.226562 596.949219 436.929688 622.199219 454.21875 629.53125 C 445.878906 615.542969 437.363281 601.394531 432.546875 585.625 C 429.785156 576.578125 427.546875 566.898438 428.210938 557.363281 C 428.644531 551.21875 438.234375 535.085938 437.535156 531.585938 C 437.535156 531.585938 449.230469 585.035156 506.011719 621.796875 C 482.300781 606.441406 456.882812 549.988281 466.804688 522.351562 C 471.75 534.03125 478.523438 545.113281 486.210938 555.195312 C 493.46875 564.707031 501.738281 573.558594 511.207031 580.910156 C 511.207031 580.917969 511.210938 580.917969 511.210938 580.921875 C 520.65625 588.246094 533.148438 590.953125 543.59375 596.574219 C 525.03125 586.582031 496.710938 542.601562 503.660156 521.800781 C 503.296875 522.875 537.4375 552.332031 540.78125 555.289062 C 553.589844 566.59375 570.394531 579.933594 588.265625 579.003906 C 571.550781 579.871094 537.910156 527.71875 538.734375 513.09375 C 559.464844 529.742188 584.777344 546.796875 610.523438 554.148438 C 610.523438 554.148438 563.769531 515.753906 557.882812 494.859375 C 559.730469 501.417969 589.378906 512.550781 594.855469 514.996094 C 631.0625 531.132812 658.882812 530.753906 696.585938 530.753906 C 652.207031 530.753906 604.261719 514.609375 577.421875 477.332031 C 600.097656 484.296875 620.007812 496.230469 645.929688 496.542969 C 637.984375 496.398438 584.410156 469.382812 587.121094 467.257812 C 587.121094 467.257812 642.277344 427.984375 655.648438 377.855469 C 655.648438 377.855469 561.496094 533.261719 231.679688 474.214844 " fill-opacity="1" fill-rule="nonzero"/></g><path fill="#100f0d" d="M 221.785156 412.019531 C 221.785156 412.019531 223.015625 410.753906 225.371094 408.429688 C 227.710938 406.097656 231.238281 402.765625 235.753906 398.578125 C 240.28125 394.394531 245.890625 389.441406 252.421875 383.890625 C 258.960938 378.363281 266.492188 372.304688 274.890625 365.96875 C 279.082031 362.789062 283.515625 359.570312 288.136719 356.296875 C 292.796875 353.070312 297.597656 349.722656 302.664062 346.488281 C 305.175781 344.839844 307.769531 343.238281 310.375 341.597656 C 311.675781 340.765625 313.019531 339.988281 314.347656 339.179688 C 315.6875 338.378906 317.015625 337.546875 318.382812 336.761719 C 321.117188 335.199219 323.855469 333.574219 326.679688 332.039062 C 328.085938 331.269531 329.492188 330.46875 330.917969 329.707031 C 332.351562 328.949219 333.792969 328.191406 335.238281 327.429688 C 346.808594 321.347656 359.136719 315.839844 371.925781 311.03125 C 373.535156 310.460938 375.148438 309.886719 376.761719 309.3125 L 379.1875 308.453125 C 380 308.175781 380.820312 307.929688 381.636719 307.664062 C 383.273438 307.140625 384.910156 306.613281 386.550781 306.089844 C 388.203125 305.609375 389.855469 305.125 391.511719 304.644531 L 393.996094 303.917969 C 394.828125 303.679688 395.667969 303.488281 396.5 303.269531 C 398.175781 302.84375 399.847656 302.414062 401.523438 301.988281 C 403.203125 301.589844 404.894531 301.246094 406.582031 300.867188 L 409.113281 300.3125 C 409.957031 300.117188 410.808594 299.996094 411.660156 299.832031 L 416.753906 298.886719 C 418.453125 298.589844 420.164062 298.371094 421.871094 298.117188 C 425.269531 297.550781 428.703125 297.261719 432.121094 296.875 C 432.96875 296.769531 433.828125 296.714844 434.683594 296.660156 L 437.246094 296.492188 L 439.808594 296.316406 L 441.089844 296.222656 L 442.371094 296.179688 C 445.78125 296.101562 449.1875 295.917969 452.574219 296.035156 C 454.273438 296.066406 455.964844 296.066406 457.652344 296.121094 C 459.339844 296.21875 461.019531 296.320312 462.695312 296.417969 C 463.53125 296.460938 464.371094 296.507812 465.210938 296.554688 C 466.042969 296.617188 466.875 296.714844 467.707031 296.796875 C 469.367188 296.957031 471.023438 297.125 472.679688 297.292969 C 473.511719 297.359375 474.328125 297.488281 475.152344 297.609375 C 475.964844 297.730469 476.789062 297.855469 477.605469 297.972656 C 478.421875 298.09375 479.238281 298.210938 480.046875 298.335938 L 481.269531 298.515625 C 481.679688 298.570312 482.078125 298.632812 482.484375 298.71875 C 484.097656 299.035156 485.695312 299.347656 487.296875 299.65625 C 488.097656 299.8125 488.898438 299.960938 489.691406 300.113281 C 490.492188 300.261719 491.269531 300.488281 492.058594 300.664062 C 504.664062 303.570312 516.554688 307.695312 527.425781 312.558594 C 528.78125 313.171875 530.132812 313.78125 531.472656 314.382812 C 531.800781 314.535156 532.144531 314.679688 532.472656 314.84375 L 533.453125 315.335938 C 534.101562 315.667969 534.75 316 535.398438 316.324219 C 536.691406 316.984375 537.96875 317.632812 539.242188 318.28125 C 539.878906 318.609375 540.515625 318.917969 541.136719 319.253906 C 541.761719 319.601562 542.371094 319.949219 542.988281 320.296875 C 544.210938 320.980469 545.425781 321.667969 546.628906 322.351562 C 547.230469 322.683594 547.832031 323.027344 548.429688 323.359375 C 549.027344 323.695312 549.625 324.023438 550.191406 324.398438 C 552.503906 325.835938 554.761719 327.253906 556.984375 328.636719 C 558.105469 329.300781 559.164062 330.054688 560.21875 330.777344 C 561.273438 331.5 562.324219 332.214844 563.355469 332.921875 C 564.390625 333.628906 565.414062 334.332031 566.425781 335.023438 C 567.425781 335.726562 568.382812 336.464844 569.347656 337.175781 C 571.269531 338.601562 573.140625 339.988281 574.960938 341.339844 C 575.421875 341.671875 575.859375 342.027344 576.292969 342.378906 C 576.726562 342.730469 577.15625 343.082031 577.585938 343.429688 C 578.4375 344.117188 579.28125 344.800781 580.113281 345.476562 C 580.941406 346.144531 581.757812 346.8125 582.5625 347.457031 C 583.363281 348.121094 584.175781 348.734375 584.910156 349.410156 C 586.40625 350.730469 587.855469 352 589.261719 353.210938 C 590.65625 354.425781 592.011719 355.578125 593.277344 356.710938 C 594.515625 357.878906 595.699219 358.988281 596.816406 360.042969 C 597.941406 361.09375 599.003906 362.097656 600 363.035156 C 601.007812 363.972656 601.964844 364.835938 602.792969 365.695312 C 604.488281 367.394531 605.925781 368.832031 607.09375 370.003906 C 609.445312 372.332031 610.703125 373.574219 610.703125 373.574219 C 610.703125 373.574219 609.582031 372.207031 607.488281 369.644531 C 606.429688 368.371094 605.125 366.796875 603.597656 364.945312 C 602.847656 364.003906 601.980469 363.046875 601.058594 362.027344 C 600.132812 361 599.148438 359.914062 598.109375 358.765625 C 597.074219 357.621094 595.976562 356.402344 594.828125 355.140625 C 593.648438 353.894531 592.378906 352.628906 591.078125 351.285156 C 589.773438 349.953125 588.40625 348.5625 586.980469 347.136719 C 586.28125 346.402344 585.503906 345.726562 584.742188 345.011719 C 583.980469 344.296875 583.195312 343.574219 582.40625 342.839844 C 581.613281 342.101562 580.808594 341.351562 579.984375 340.59375 C 579.574219 340.21875 579.164062 339.832031 578.746094 339.449219 C 578.328125 339.058594 577.914062 338.671875 577.46875 338.304688 C 575.71875 336.8125 573.914062 335.277344 572.066406 333.699219 C 571.128906 332.914062 570.210938 332.09375 569.234375 331.320312 C 568.242188 330.558594 567.242188 329.792969 566.226562 329.007812 C 565.214844 328.230469 564.1875 327.441406 563.152344 326.640625 C 562.113281 325.847656 561.078125 325.015625 559.972656 324.265625 C 557.773438 322.730469 555.535156 321.171875 553.246094 319.574219 C 552.679688 319.167969 552.085938 318.800781 551.492188 318.425781 C 550.894531 318.050781 550.296875 317.671875 549.695312 317.296875 C 548.496094 316.539062 547.28125 315.773438 546.058594 315.003906 C 545.441406 314.613281 544.832031 314.230469 544.214844 313.84375 C 543.585938 313.457031 542.9375 313.117188 542.300781 312.75 C 541.019531 312.03125 539.726562 311.308594 538.421875 310.570312 C 537.773438 310.203125 537.117188 309.835938 536.457031 309.46875 L 535.46875 308.914062 C 535.136719 308.734375 534.792969 308.574219 534.457031 308.398438 C 533.09375 307.71875 531.726562 307.035156 530.347656 306.34375 C 519.300781 300.875 507.066406 296.152344 493.96875 292.796875 C 493.152344 292.585938 492.339844 292.332031 491.507812 292.15625 C 490.679688 291.972656 489.847656 291.789062 489.023438 291.605469 C 487.351562 291.246094 485.679688 290.882812 484.003906 290.515625 C 483.582031 290.417969 483.160156 290.34375 482.734375 290.277344 L 481.464844 290.0625 C 480.617188 289.921875 479.761719 289.773438 478.90625 289.632812 C 478.054688 289.492188 477.199219 289.347656 476.34375 289.207031 C 475.492188 289.0625 474.632812 288.910156 473.765625 288.824219 C 472.035156 288.621094 470.300781 288.40625 468.566406 288.203125 C 467.695312 288.101562 466.824219 287.980469 465.949219 287.898438 C 465.074219 287.832031 464.199219 287.769531 463.320312 287.703125 C 461.566406 287.582031 459.804688 287.457031 458.039062 287.332031 C 456.273438 287.25 454.5 287.230469 452.722656 287.179688 C 449.167969 287.019531 445.609375 287.164062 442.027344 287.214844 L 440.691406 287.242188 L 439.347656 287.316406 L 436.667969 287.476562 L 433.984375 287.644531 C 433.085938 287.699219 432.191406 287.761719 431.300781 287.859375 C 427.730469 288.246094 424.140625 288.542969 420.585938 289.109375 C 418.808594 289.382812 417.015625 289.597656 415.246094 289.90625 L 409.9375 290.871094 C 409.046875 291.046875 408.160156 291.179688 407.285156 291.386719 L 404.652344 291.96875 C 402.898438 292.363281 401.136719 292.734375 399.390625 293.160156 C 397.65625 293.609375 395.917969 294.054688 394.179688 294.503906 C 393.316406 294.738281 392.441406 294.941406 391.582031 295.191406 L 389.007812 295.953125 C 387.292969 296.460938 385.574219 296.949219 383.871094 297.476562 C 382.179688 298.039062 380.488281 298.601562 378.800781 299.164062 C 377.960938 299.445312 377.113281 299.714844 376.277344 300.011719 L 373.78125 300.925781 C 372.117188 301.535156 370.457031 302.144531 368.804688 302.757812 C 367.167969 303.410156 365.53125 304.0625 363.902344 304.714844 C 363.085938 305.039062 362.273438 305.367188 361.457031 305.691406 C 360.65625 306.039062 359.855469 306.390625 359.054688 306.734375 C 357.453125 307.433594 355.855469 308.128906 354.265625 308.820312 C 352.695312 309.554688 351.125 310.285156 349.5625 311.015625 C 348.78125 311.382812 348 311.746094 347.222656 312.113281 C 346.453125 312.492188 345.683594 312.875 344.917969 313.253906 C 343.382812 314.015625 341.855469 314.777344 340.332031 315.53125 C 338.820312 316.320312 337.328125 317.117188 335.839844 317.914062 C 335.09375 318.308594 334.351562 318.703125 333.609375 319.09375 C 332.871094 319.496094 332.144531 319.910156 331.414062 320.316406 C 319.710938 326.808594 308.808594 333.757812 298.828125 340.816406 C 293.824219 344.328125 289.070312 347.898438 284.515625 351.402344 C 280 354.953125 275.660156 358.398438 271.605469 361.851562 C 267.535156 365.28125 263.703125 368.648438 260.109375 371.894531 C 256.542969 375.175781 253.179688 378.308594 250.085938 381.320312 C 243.863281 387.296875 238.671875 392.75 234.476562 397.296875 C 230.269531 401.835938 227.121094 405.546875 224.984375 408.078125 C 222.863281 410.621094 221.785156 412.019531 221.785156 412.019531 " fill-opacity="1" fill-rule="nonzero"/><g clip-path="url(#cf021c33be)"><path fill="#100f0d" d="M 162.6875 334.4375 C 162.6875 334.4375 163.042969 334.117188 163.71875 333.488281 C 164.445312 332.824219 165.613281 331.792969 167.148438 330.445312 C 170.242188 327.75 174.929688 323.765625 181.0625 318.8125 C 187.199219 313.859375 194.8125 307.953125 203.730469 301.378906 C 212.648438 294.800781 222.917969 287.617188 234.34375 280.097656 C 245.769531 272.566406 258.40625 264.792969 272.039062 257.015625 C 285.671875 249.238281 300.355469 241.585938 315.839844 234.277344 C 331.335938 227 347.679688 220.199219 364.589844 214.121094 C 381.511719 208.082031 399.035156 202.894531 416.816406 198.753906 C 434.609375 194.664062 452.671875 191.777344 470.597656 190.171875 C 488.519531 188.527344 506.296875 188.414062 523.457031 189.570312 C 540.621094 190.730469 557.148438 193.242188 572.601562 196.800781 C 588.058594 200.359375 602.429688 204.957031 615.417969 209.992188 C 618.652344 211.304688 621.820312 212.585938 624.914062 213.835938 C 627.960938 215.195312 630.925781 216.5625 633.824219 217.875 C 634.554688 218.207031 635.273438 218.535156 635.988281 218.859375 C 636.351562 219.023438 636.707031 219.183594 637.066406 219.347656 C 637.410156 219.519531 637.761719 219.691406 638.109375 219.871094 C 639.492188 220.566406 640.859375 221.257812 642.203125 221.941406 C 643.554688 222.621094 644.886719 223.292969 646.195312 223.957031 C 646.847656 224.285156 647.503906 224.617188 648.148438 224.941406 C 648.46875 225.101562 648.789062 225.269531 649.109375 225.433594 C 649.421875 225.605469 649.734375 225.777344 650.042969 225.949219 C 652.535156 227.339844 654.941406 228.6875 657.265625 229.980469 C 658.433594 230.628906 659.574219 231.269531 660.699219 231.894531 C 661.808594 232.539062 662.867188 233.214844 663.925781 233.859375 C 666.027344 235.148438 668.050781 236.386719 669.984375 237.570312 C 670.953125 238.164062 671.894531 238.742188 672.820312 239.304688 C 673.714844 239.90625 674.589844 240.492188 675.445312 241.0625 C 678.855469 243.347656 681.90625 245.390625 684.558594 247.167969 C 687.144531 249.050781 689.339844 250.652344 691.121094 251.945312 C 694.6875 254.550781 696.585938 255.933594 696.585938 255.933594 C 696.585938 255.933594 694.820312 254.386719 691.503906 251.464844 C 689.847656 250.011719 687.792969 248.210938 685.386719 246.097656 C 682.894531 244.078125 680.03125 241.753906 676.820312 239.15625 C 676.011719 238.5 675.191406 237.835938 674.339844 237.148438 C 673.472656 236.5 672.574219 235.832031 671.660156 235.148438 C 669.828125 233.78125 667.910156 232.347656 665.910156 230.859375 C 664.90625 230.117188 663.894531 229.339844 662.832031 228.589844 C 661.761719 227.855469 660.671875 227.105469 659.558594 226.34375 C 657.332031 224.820312 655.023438 223.242188 652.632812 221.609375 C 652.335938 221.402344 652.039062 221.199219 651.738281 220.996094 C 651.429688 220.800781 651.121094 220.605469 650.804688 220.410156 C 650.183594 220.019531 649.558594 219.632812 648.925781 219.230469 C 647.660156 218.445312 646.375 217.636719 645.070312 216.828125 C 643.765625 216.011719 642.445312 215.183594 641.097656 214.34375 C 640.761719 214.136719 640.425781 213.925781 640.085938 213.714844 C 639.742188 213.519531 639.394531 213.320312 639.042969 213.121094 C 638.34375 212.726562 637.648438 212.324219 636.941406 211.925781 C 634.113281 210.320312 631.21875 208.648438 628.230469 206.984375 C 625.1875 205.410156 622.074219 203.808594 618.898438 202.167969 C 606.078125 195.808594 591.71875 189.71875 576.023438 184.570312 C 560.335938 179.410156 543.324219 175.210938 525.429688 172.351562 C 507.542969 169.496094 488.777344 167.902344 469.691406 167.910156 C 450.605469 167.875 431.179688 169.1875 411.941406 171.804688 C 392.703125 174.464844 373.621094 178.277344 355.109375 183.035156 C 336.613281 187.84375 318.636719 193.460938 301.53125 199.675781 C 284.4375 205.910156 268.148438 212.601562 252.96875 219.507812 C 237.789062 226.425781 223.648438 233.441406 210.800781 240.320312 C 197.949219 247.191406 186.339844 253.832031 176.179688 259.984375 C 166.015625 266.128906 157.269531 271.722656 150.117188 276.496094 C 142.964844 281.261719 137.398438 285.175781 133.570312 287.945312 C 131.648438 289.335938 130.179688 290.417969 129.144531 291.203125 C 128.066406 292.023438 127.507812 292.445312 127.507812 292.445312 L 127.457031 292.484375 C 115.414062 301.671875 113.097656 318.875 122.285156 330.914062 C 131.46875 342.957031 148.679688 345.273438 160.722656 336.085938 C 161.398438 335.574219 162.078125 335.003906 162.6875 334.4375 " fill-opacity="1" fill-rule="nonzero"/></g></svg>