<svg xmlns="http://www.w3.org/2000/svg" xmlns:xlink="http://www.w3.org/1999/xlink" width="1080" zoomAndPan="magnify" viewBox="0 0 810 809.999993" height="1080" preserveAspectRatio="xMidYMid meet" version="1.0"><defs><clipPath id="c75550a41e"><path d="M 221 531 L 656.617188 531 L 656.617188 680.972656 L 221 680.972656 Z M 221 531 " clip-rule="nonzero"/></clipPath><clipPath id="ef8fdc5918"><path d="M 573 494 L 679.199219 494 L 679.199219 543 L 573 543 Z M 573 494 " clip-rule="nonzero"/></clipPath></defs><path fill="#1e1e1e" d="M 367.140625 480.972656 C 358.019531 480.972656 347.902344 479.382812 339.097656 477.496094 C 307.714844 470.78125 281.359375 447.429688 270.164062 428.578125 C 264.691406 419.371094 244.421875 388.898438 213.339844 383.320312 C 206.621094 382.121094 200.058594 381.59375 193.710938 381.082031 C 174.371094 379.542969 156.109375 378.082031 143.132812 357.449219 C 130.964844 338.113281 140.242188 313.894531 148.417969 292.539062 C 151.964844 283.273438 155.3125 274.53125 156.957031 266.546875 C 162.230469 240.835938 148.785156 197.976562 148.652344 197.546875 C 147.75 194.710938 149.324219 191.675781 152.160156 190.777344 C 155.007812 189.882812 158.039062 191.449219 158.9375 194.285156 C 159.527344 196.148438 173.363281 240.246094 167.519531 268.714844 C 165.714844 277.554688 162.207031 286.707031 158.496094 296.386719 C 150.859375 316.320312 142.96875 336.929688 152.269531 351.710938 C 162.367188 367.761719 175.871094 368.839844 194.566406 370.332031 C 201.171875 370.859375 208.007812 371.410156 215.253906 372.707031 C 250.839844 379.09375 273.375 412.875 279.441406 423.070312 C 289.804688 440.507812 314.394531 461.179688 341.363281 466.957031 C 364.414062 471.894531 378.355469 470.5 381.9375 466.929688 C 382.441406 466.425781 382.945312 465.734375 382.550781 463.867188 C 381.773438 460.164062 374.375 453.371094 366.550781 446.179688 C 352.253906 433.042969 332.675781 415.050781 319.222656 388.164062 C 308.539062 366.804688 301.972656 353.824219 295.027344 340.082031 C 287.8125 325.804688 279.636719 309.628906 265.445312 281.292969 C 237.507812 225.523438 228.980469 149.785156 228.636719 146.585938 C 228.316406 143.625 230.449219 140.960938 233.417969 140.640625 C 236.355469 140.308594 239.039062 142.453125 239.359375 145.414062 C 239.445312 146.179688 248.03125 222.457031 275.089844 276.46875 C 289.285156 304.78125 297.453125 320.949219 304.660156 335.21875 C 311.613281 348.980469 318.175781 361.964844 328.878906 383.335938 C 341.441406 408.457031 360.175781 425.671875 373.855469 438.234375 C 384.171875 447.722656 391.617188 454.5625 393.113281 461.640625 C 394.164062 466.648438 392.898438 471.234375 389.554688 474.574219 C 384.800781 479.308594 376.5 480.972656 367.140625 480.972656 " fill-opacity="1" fill-rule="nonzero"/><path fill="#1e1e1e" d="M 207.289062 304.660156 C 206.023438 304.660156 204.75 304.222656 203.71875 303.320312 C 197.710938 298.023438 194.484375 291.777344 194.121094 284.753906 C 193.46875 271.972656 202.925781 261.597656 203.328125 261.15625 C 205.347656 258.972656 208.765625 258.839844 210.953125 260.855469 C 213.140625 262.878906 213.273438 266.28125 211.265625 268.460938 C 211.152344 268.597656 204.449219 276.074219 204.898438 284.25 C 205.128906 288.304688 207.070312 291.894531 210.859375 295.226562 C 213.089844 297.195312 213.3125 300.597656 211.335938 302.839844 C 210.269531 304.050781 208.78125 304.660156 207.289062 304.660156 " fill-opacity="1" fill-rule="nonzero"/><path fill="#1e1e1e" d="M 408.992188 469.4375 C 401.5625 469.4375 393.605469 468.394531 386.59375 467.101562 C 383.667969 466.566406 381.726562 463.757812 382.269531 460.828125 C 382.804688 457.898438 385.613281 455.960938 388.550781 456.496094 C 409.992188 460.449219 420.988281 458.367188 423.898438 455.390625 C 424.246094 455.027344 424.898438 454.359375 424.472656 452.355469 C 423.695312 448.664062 416.308594 441.863281 408.472656 434.667969 C 394.171875 421.539062 374.597656 403.546875 361.144531 376.652344 C 350.4375 355.261719 343.871094 342.257812 336.914062 328.492188 C 329.703125 314.234375 321.542969 298.070312 307.367188 269.792969 C 279.425781 214.019531 270.898438 138.273438 270.554688 135.074219 C 270.234375 132.117188 272.371094 129.457031 275.335938 129.128906 C 278.285156 128.800781 280.957031 130.945312 281.28125 133.90625 C 281.363281 134.667969 289.960938 210.945312 317.011719 264.957031 C 331.179688 293.222656 339.34375 309.378906 346.542969 323.636719 C 353.507812 337.410156 360.082031 350.425781 370.796875 371.835938 C 383.363281 396.945312 402.097656 414.160156 415.777344 426.734375 C 426.09375 436.207031 433.546875 443.058594 435.03125 450.140625 C 436.359375 456.449219 433.914062 460.566406 431.625 462.914062 C 426.875 467.789062 418.347656 469.4375 408.992188 469.4375 " fill-opacity="1" fill-rule="nonzero"/><path fill="#1e1e1e" d="M 578.75 654.78125 L 526.265625 654.78125 C 523.285156 654.78125 520.871094 652.363281 520.871094 649.382812 C 520.871094 646.40625 523.285156 643.996094 526.265625 643.996094 L 578.75 643.996094 C 580.394531 643.996094 581.839844 642.949219 582.359375 641.398438 L 592.824219 610.324219 C 593.777344 607.503906 596.835938 605.988281 599.660156 606.929688 C 602.488281 607.882812 604.003906 610.9375 603.054688 613.765625 L 592.589844 644.839844 C 590.589844 650.78125 585.035156 654.78125 578.75 654.78125 " fill-opacity="1" fill-rule="nonzero"/><path fill="#1e1e1e" d="M 500.570312 654.78125 L 485.152344 654.78125 C 482.175781 654.78125 479.757812 652.363281 479.757812 649.382812 C 479.757812 646.40625 482.175781 643.996094 485.152344 643.996094 L 500.570312 643.996094 C 503.550781 643.996094 505.964844 646.40625 505.964844 649.382812 C 505.964844 652.363281 503.550781 654.78125 500.570312 654.78125 " fill-opacity="1" fill-rule="nonzero"/><g clip-path="url(#c75550a41e)"><path fill="#1e1e1e" d="M 578.761719 680.972656 L 298.703125 680.972656 C 281.164062 680.972656 265.617188 669.804688 260.019531 653.195312 L 221.496094 538.753906 C 220.945312 537.105469 221.21875 535.296875 222.234375 533.882812 C 223.242188 532.476562 224.875 531.636719 226.613281 531.636719 L 539.207031 531.636719 C 542.183594 531.636719 544.597656 534.054688 544.597656 537.035156 C 544.597656 540.015625 542.183594 542.421875 539.207031 542.421875 L 234.121094 542.421875 L 270.25 649.753906 C 274.367188 661.980469 285.800781 670.191406 298.703125 670.191406 L 578.761719 670.191406 C 591.660156 670.191406 603.089844 661.980469 607.207031 649.753906 L 643.332031 542.421875 L 579.253906 542.421875 C 576.277344 542.421875 573.855469 540.015625 573.855469 537.035156 C 573.855469 534.054688 576.277344 531.636719 579.253906 531.636719 L 650.839844 531.636719 C 652.578125 531.636719 654.210938 532.476562 655.226562 533.882812 C 656.238281 535.296875 656.507812 537.105469 655.957031 538.753906 L 617.433594 653.195312 C 611.839844 669.804688 596.300781 680.972656 578.761719 680.972656 " fill-opacity="1" fill-rule="nonzero"/></g><path fill="#1e1e1e" d="M 542.289062 542.421875 L 222.519531 542.421875 C 209.136719 542.421875 198.253906 531.546875 198.253906 518.175781 C 198.253906 504.808594 209.136719 493.929688 222.519531 493.929688 L 491.882812 493.929688 C 494.863281 493.929688 497.285156 496.347656 497.285156 499.328125 C 497.285156 502.304688 494.863281 504.714844 491.882812 504.714844 L 222.519531 504.714844 C 215.089844 504.714844 209.042969 510.757812 209.042969 518.175781 C 209.042969 525.597656 215.089844 531.636719 222.519531 531.636719 L 542.289062 531.636719 C 545.269531 531.636719 547.683594 534.054688 547.683594 537.035156 C 547.683594 540.015625 545.269531 542.421875 542.289062 542.421875 " fill-opacity="1" fill-rule="nonzero"/><g clip-path="url(#ef8fdc5918)"><path fill="#1e1e1e" d="M 654.945312 542.421875 L 579.253906 542.421875 C 576.277344 542.421875 573.855469 540.015625 573.855469 537.035156 C 573.855469 534.054688 576.277344 531.636719 579.253906 531.636719 L 654.945312 531.636719 C 662.363281 531.636719 668.414062 525.597656 668.414062 518.175781 C 668.414062 512.15625 664.363281 506.824219 658.570312 505.210938 C 655.695312 504.410156 654.023438 501.433594 654.824219 498.566406 C 655.625 495.695312 658.609375 494.019531 661.46875 494.824219 C 671.914062 497.734375 679.199219 507.332031 679.199219 518.175781 C 679.199219 531.546875 668.316406 542.421875 654.945312 542.421875 " fill-opacity="1" fill-rule="nonzero"/></g><path fill="#1e1e1e" d="M 529.007812 520.722656 C 521.382812 520.722656 514.417969 515.734375 512.167969 508.097656 C 507.730469 493.015625 504.449219 471.582031 513.945312 455.136719 C 518.785156 446.75 526.863281 439.917969 537.941406 434.820312 C 540.644531 433.570312 543.851562 434.746094 545.09375 437.457031 C 546.34375 440.160156 545.167969 443.367188 542.453125 444.617188 C 533.441406 448.765625 526.996094 454.117188 523.292969 460.527344 C 515.296875 474.363281 519.378906 494.371094 522.523438 505.054688 C 523.542969 508.535156 527.105469 510.585938 530.636719 509.734375 C 541.46875 507.113281 560.84375 500.640625 568.828125 486.804688 C 569.578125 485.511719 570.238281 484.136719 570.789062 482.714844 C 571.875 479.941406 574.992188 478.558594 577.777344 479.644531 C 580.550781 480.71875 581.929688 483.835938 580.851562 486.621094 C 580.09375 488.554688 579.199219 490.429688 578.175781 492.203125 C 568.679688 508.648438 548.457031 516.515625 533.175781 520.21875 C 531.785156 520.558594 530.382812 520.722656 529.007812 520.722656 " fill-opacity="1" fill-rule="nonzero"/><path fill="#1e1e1e" d="M 625.4375 510.585938 C 625.261719 510.585938 625.101562 510.585938 624.925781 510.578125 C 609.203125 510.132812 587.792969 506.640625 575.074219 492.523438 C 568.59375 485.332031 564.585938 475.542969 563.152344 463.425781 C 562.800781 460.472656 564.914062 457.785156 567.878906 457.4375 C 570.832031 457.09375 573.515625 459.207031 573.867188 462.160156 C 575.03125 472.015625 578.128906 479.800781 583.089844 485.308594 C 593.792969 497.179688 614.085938 499.484375 625.234375 499.800781 C 628.8125 499.878906 631.914062 497.160156 632.1875 493.535156 C 633.039062 482.425781 632.867188 462.011719 622.171875 450.140625 C 621.183594 449.039062 620.074219 447.984375 618.878906 447.011719 C 616.578125 445.136719 616.230469 441.734375 618.117188 439.429688 C 620.003906 437.121094 623.398438 436.78125 625.710938 438.660156 C 627.324219 439.980469 628.832031 441.417969 630.191406 442.925781 C 642.914062 457.039062 644.148438 478.6875 642.953125 494.359375 C 642.246094 503.554688 634.605469 510.585938 625.4375 510.585938 " fill-opacity="1" fill-rule="nonzero"/><path fill="#1e1e1e" d="M 611.066406 449.660156 C 606.976562 449.660156 602.667969 449.210938 598.164062 448.316406 C 595.238281 447.734375 593.34375 444.898438 593.925781 441.976562 C 594.507812 439.054688 597.347656 437.160156 600.269531 437.742188 C 610.011719 439.679688 618.386719 439.136719 625.152344 436.125 C 639.761719 429.625 648.21875 411.050781 651.972656 400.554688 C 653.179688 397.132812 651.515625 393.386719 648.160156 392.003906 C 637.851562 387.761719 618.367188 381.617188 603.761719 388.113281 C 602.40625 388.71875 601.0625 389.449219 599.773438 390.273438 C 597.277344 391.886719 593.933594 391.164062 592.3125 388.664062 C 590.699219 386.15625 591.425781 382.816406 593.933594 381.207031 C 595.6875 380.085938 597.515625 379.085938 599.375 378.261719 C 616.742188 370.535156 637.71875 376.042969 652.265625 382.03125 C 660.957031 385.601562 665.289062 395.328125 662.128906 404.175781 C 656.847656 418.988281 646.90625 438.25 629.539062 445.976562 C 624.019531 448.433594 617.84375 449.660156 611.066406 449.660156 " fill-opacity="1" fill-rule="nonzero"/><path fill="#1e1e1e" d="M 589.898438 413.128906 C 589.003906 413.128906 588.101562 412.914062 587.269531 412.441406 C 584.664062 410.988281 583.734375 407.699219 585.199219 405.101562 C 590.058594 396.441406 592.125 388.316406 591.347656 380.949219 C 590.074219 368.839844 580.945312 357.988281 573.507812 351.027344 C 571.109375 348.78125 568.503906 346.574219 565.78125 344.464844 C 562.910156 342.257812 558.820312 342.683594 556.46875 345.449219 C 549.246094 353.945312 537.378906 370.554688 539.046875 386.441406 C 539.207031 387.917969 539.480469 389.417969 539.875 390.914062 C 540.628906 393.789062 538.90625 396.742188 536.027344 397.496094 C 533.140625 398.257812 530.195312 396.53125 529.441406 393.652344 C 528.90625 391.632812 528.527344 389.589844 528.316406 387.574219 C 526.335938 368.683594 538.058594 350.4375 548.246094 338.464844 C 554.332031 331.3125 564.929688 330.199219 572.367188 335.925781 C 575.371094 338.242188 578.242188 340.679688 580.890625 343.15625 C 593.648438 355.113281 600.78125 367.453125 602.078125 379.824219 C 603.089844 389.449219 600.578125 399.734375 594.609375 410.375 C 593.617188 412.144531 591.789062 413.128906 589.898438 413.128906 " fill-opacity="1" fill-rule="nonzero"/><path fill="#1e1e1e" d="M 521.664062 458.804688 C 521.5625 458.804688 521.453125 458.804688 521.351562 458.800781 C 519.265625 458.679688 517.207031 458.40625 515.21875 457.988281 C 496.621094 454.035156 482.886719 437.253906 474.640625 423.863281 C 469.71875 415.875 471.929688 405.464844 479.6875 400.160156 C 492.671875 391.28125 512.042969 381.53125 530.636719 385.484375 C 540.117188 387.492188 549.117188 393.058594 557.398438 402.019531 C 559.421875 404.207031 559.285156 407.625 557.097656 409.644531 C 554.90625 411.664062 551.492188 411.53125 549.472656 409.335938 C 542.734375 402.046875 535.644531 397.574219 528.394531 396.035156 C 512.761719 392.710938 494.980469 402.769531 485.78125 409.0625 C 482.785156 411.105469 481.929688 415.128906 483.832031 418.214844 C 489.683594 427.699219 501.820312 444.113281 517.460938 447.4375 C 518.914062 447.746094 520.421875 447.945312 521.964844 448.035156 C 524.9375 448.199219 527.214844 450.753906 527.042969 453.722656 C 526.875 456.59375 524.503906 458.804688 521.664062 458.804688 " fill-opacity="1" fill-rule="nonzero"/><path fill="#1e1e1e" d="M 570.269531 422.867188 C 569.488281 422.867188 568.714844 422.96875 567.949219 423.171875 C 565.644531 423.785156 563.71875 425.265625 562.523438 427.328125 C 561.335938 429.390625 561.015625 431.792969 561.636719 434.097656 C 562.679688 437.992188 566.21875 440.710938 570.246094 440.710938 C 571.023438 440.710938 571.804688 440.609375 572.5625 440.40625 C 574.867188 439.789062 576.792969 438.3125 577.988281 436.246094 C 579.179688 434.179688 579.5 431.777344 578.878906 429.480469 C 577.828125 425.585938 574.292969 422.867188 570.269531 422.867188 Z M 570.246094 451.5 C 561.347656 451.5 553.515625 445.488281 551.210938 436.886719 C 549.847656 431.800781 550.550781 426.496094 553.183594 421.9375 C 555.816406 417.375 560.066406 414.113281 565.148438 412.753906 C 566.824219 412.304688 568.546875 412.078125 570.269531 412.078125 C 579.167969 412.078125 587 418.089844 589.304688 426.683594 C 590.660156 431.769531 589.964844 437.078125 587.328125 441.636719 C 584.695312 446.195312 580.453125 449.457031 575.363281 450.824219 C 573.6875 451.269531 571.964844 451.5 570.246094 451.5 " fill-opacity="1" fill-rule="nonzero"/></svg>