<svg xmlns="http://www.w3.org/2000/svg" xmlns:xlink="http://www.w3.org/1999/xlink" width="1080" zoomAndPan="magnify" viewBox="0 0 810 809.999993" height="1080" preserveAspectRatio="xMidYMid meet" version="1.0"><defs><clipPath id="619c82a71c"><path d="M 81 197 L 718.5 197 L 718.5 613.996094 L 81 613.996094 Z M 81 197 " clip-rule="nonzero"/></clipPath></defs><g clip-path="url(#619c82a71c)"><path fill="#000000" d="M 714.109375 471.175781 C 716.519531 471.269531 718.394531 473.300781 718.300781 475.710938 C 718.207031 478.121094 716.175781 480 713.769531 479.90625 C 680.679688 478.566406 656.941406 467.570312 631.058594 451.496094 C 627.40625 449.914062 622.066406 447.417969 616.308594 444.730469 C 606.832031 440.304688 596.160156 435.324219 588.203125 432.300781 C 583.984375 430.699219 580.757812 429.570312 577.824219 429.097656 C 575.066406 428.65625 572.332031 428.773438 568.832031 429.59375 C 558.425781 432.039062 549.894531 434.15625 542.054688 436.097656 C 515.945312 442.578125 497.320312 447.195312 464.332031 450.804688 C 460.238281 451.253906 458.027344 451.628906 456.542969 452.390625 C 455.140625 453.113281 453.8125 454.542969 451.566406 457.054688 C 435.503906 475.039062 419.40625 492.992188 403.308594 510.945312 C 396.65625 518.367188 390 525.785156 383.351562 533.207031 C 389.691406 540.011719 387.925781 546.738281 383.035156 552.871094 C 380.058594 556.601562 375.855469 559.910156 371.953125 562.753906 C 375.929688 563.261719 380.003906 562.609375 384.289062 560.949219 C 391.363281 558.203125 399.054688 552.761719 407.761719 545.230469 C 412.523438 541.113281 418.410156 535.351562 424.503906 529.109375 C 430.832031 522.628906 437.105469 515.9375 442.582031 510.007812 C 445.398438 506.964844 444.332031 508.109375 444.71875 507.695312 C 452.566406 499.261719 458.507812 492.882812 458.933594 483.90625 C 459.046875 481.496094 461.09375 479.632812 463.5 479.746094 C 465.734375 479.851562 467.496094 481.617188 467.652344 483.796875 C 471.515625 481.125 475.855469 479.234375 481.925781 478.285156 L 505.882812 474.546875 C 510.144531 473.882812 514.527344 473.441406 519.074219 472.988281 C 534.652344 471.425781 552.179688 469.671875 565.714844 458.480469 C 565.863281 458.359375 566.015625 458.25 566.175781 458.148438 C 573.246094 452.644531 579.21875 448.792969 582.382812 448.445312 C 584.78125 448.191406 586.933594 449.929688 587.1875 452.332031 C 587.445312 454.734375 585.707031 456.886719 583.304688 457.140625 C 581.710938 457.316406 577.300781 460.410156 571.59375 464.949219 C 571.5 465.046875 571.398438 465.136719 571.292969 465.226562 C 570.625 465.777344 569.953125 466.304688 569.277344 466.816406 C 567.738281 468.066406 566.132812 469.394531 564.480469 470.78125 C 548.378906 484.296875 529.117188 502.6875 526.144531 506.015625 C 511.136719 522.820312 496.097656 539.59375 481.054688 556.367188 C 474.925781 563.203125 468.800781 570.035156 462.675781 576.871094 C 468.515625 583.285156 466.824219 589.625 462.210938 595.40625 C 459.566406 598.71875 455.902344 601.671875 452.425781 604.234375 C 455.851562 604.535156 459.363281 603.917969 463.046875 602.488281 C 469.613281 599.941406 476.761719 594.878906 484.863281 587.875 C 489.296875 584.039062 494.785156 578.667969 500.464844 572.847656 C 506.378906 566.792969 512.226562 560.554688 517.332031 555.03125 C 520.261719 551.863281 518.886719 553.339844 519.324219 552.871094 C 526.605469 545.046875 532.117188 539.128906 532.507812 530.863281 C 532.621094 528.453125 534.667969 526.589844 537.078125 526.703125 C 539.488281 526.816406 541.347656 528.863281 541.234375 531.273438 C 541.222656 531.554688 541.203125 531.832031 541.183594 532.105469 L 557.066406 519.191406 L 557.144531 519.128906 L 557.136719 519.121094 C 562.144531 515.222656 564.972656 512.878906 566.550781 510.285156 C 568.136719 507.675781 568.894531 504.140625 569.820312 497.785156 C 570.160156 495.394531 572.375 493.730469 574.761719 494.074219 C 577.152344 494.414062 578.816406 496.628906 578.476562 499.019531 C 577.894531 503.019531 577.339844 506.125 576.589844 508.742188 C 579.261719 510.53125 583.894531 511.792969 589.132812 512.132812 C 595.179688 512.527344 601.765625 511.570312 606.921875 508.648438 C 609.019531 507.457031 611.683594 508.195312 612.875 510.292969 C 614.066406 512.390625 613.328125 515.058594 611.230469 516.25 C 604.472656 520.082031 596.121094 521.351562 588.585938 520.863281 C 582.578125 520.472656 576.933594 518.902344 572.828125 516.558594 C 570.535156 519.636719 567.402344 522.226562 562.507812 526.035156 L 562.503906 526.027344 L 541.6875 542.953125 C 544.332031 544.816406 547.335938 546.953125 550.390625 549.125 C 583.617188 572.738281 622.976562 600.71875 675.71875 604.457031 C 681.011719 604.835938 686.378906 604.972656 691.816406 604.84375 C 697.246094 604.71875 702.902344 604.320312 708.796875 603.621094 C 711.195312 603.339844 713.371094 605.054688 713.65625 607.457031 C 713.9375 609.859375 712.222656 612.035156 709.824219 612.316406 C 703.820312 613.027344 697.886719 613.4375 692.023438 613.574219 C 686.167969 613.710938 680.53125 613.574219 675.101562 613.1875 C 619.933594 609.273438 579.476562 580.519531 545.328125 556.246094 C 541.9375 553.835938 538.613281 551.472656 534.628906 548.695312 L 534.417969 548.867188 C 531.972656 552.113281 529 555.304688 525.722656 558.828125 C 523.980469 560.699219 525.308594 559.246094 523.730469 560.953125 C 518.335938 566.792969 512.320312 573.214844 506.726562 578.941406 C 500.898438 584.910156 495.230469 590.453125 490.578125 594.480469 C 481.761719 602.105469 473.808594 607.679688 466.195312 610.636719 C 458.144531 613.757812 450.554688 613.996094 442.925781 610.71875 C 440.664062 611.871094 438.085938 612.773438 435.480469 613.074219 C 431.835938 613.496094 428.136719 612.808594 424.996094 610.210938 C 424.597656 609.878906 424.203125 609.480469 423.816406 609.027344 C 422.097656 607.007812 421.65625 604.839844 422.03125 602.695312 C 422.339844 600.945312 423.214844 599.363281 424.332031 598.011719 C 424.902344 597.324219 425.601562 596.644531 426.34375 596.011719 C 430.179688 592.742188 433.960938 589.878906 437.722656 587.03125 C 444.175781 582.148438 450.570312 577.304688 455.0625 572.292969 C 461.554688 565.042969 468.054688 557.796875 474.554688 550.550781 C 482.570312 541.609375 490.585938 532.667969 498.597656 523.722656 C 489.058594 517.589844 480.4375 512.929688 472.625 510.796875 C 464.902344 508.6875 457.929688 509.113281 451.53125 513.207031 L 451.117188 513.648438 C 449.332031 515.566406 450.351562 514.453125 448.984375 515.929688 C 443.210938 522.175781 436.769531 529.050781 430.765625 535.203125 C 424.523438 541.59375 418.457031 547.527344 413.476562 551.835938 C 404.050781 559.988281 395.558594 565.945312 387.4375 569.09375 C 378.839844 572.433594 370.742188 572.671875 362.597656 569.128906 C 360.175781 570.378906 357.398438 571.367188 354.597656 571.691406 C 350.769531 572.132812 346.886719 571.410156 343.597656 568.6875 C 343.179688 568.34375 342.769531 567.933594 342.371094 567.460938 C 340.597656 565.378906 340.140625 563.144531 340.527344 560.933594 C 340.847656 559.117188 341.757812 557.472656 342.925781 556.058594 C 343.527344 555.335938 344.261719 554.617188 345.042969 553.953125 C 349.132812 550.46875 353.191406 547.398438 357.226562 544.34375 C 364.148438 539.097656 371.015625 533.902344 375.851562 528.503906 C 382.832031 520.710938 389.820312 512.917969 396.808594 505.125 C 410.382812 489.984375 423.960938 474.84375 437.515625 459.683594 L 426.125 461.058594 C 425.535156 461.128906 424.960938 461.078125 424.421875 460.925781 C 422.289062 462.648438 419.988281 464.378906 417.550781 466.210938 C 417.203125 466.472656 418.238281 465.695312 415.066406 468.097656 C 408.523438 473.054688 401.085938 478.613281 393.734375 483.875 C 386.445312 489.089844 379.429688 493.871094 373.804688 497.21875 C 363.097656 503.589844 353.695312 507.964844 345.15625 509.640625 C 336.117188 511.417969 328.101562 510.226562 320.695312 505.304688 C 318.09375 506.113281 315.191406 506.597656 312.382812 506.425781 C 308.53125 506.191406 304.828125 504.796875 302.0625 501.539062 C 301.691406 501.097656 301.359375 500.625 301.070312 500.128906 C 299.691406 497.773438 299.636719 495.492188 300.410156 493.378906 C 301.042969 491.640625 302.230469 490.175781 303.625 488.992188 C 304.371094 488.359375 305.210938 487.785156 306.0625 487.289062 C 310.667969 484.59375 315.21875 482.273438 319.746094 479.960938 C 327.484375 476.011719 335.160156 472.097656 340.863281 467.632812 C 349.078125 461.203125 357.296875 454.777344 365.515625 448.351562 C 382.449219 435.109375 399.382812 421.867188 422.527344 403.695312 C 425.992188 400.976562 428.105469 399.417969 431.082031 398.503906 C 433.960938 397.617188 436.988281 397.582031 442.183594 397.933594 C 460.527344 399.167969 474.539062 399.304688 488.027344 398.867188 L 487.171875 398.199219 C 480.210938 392.742188 473.960938 392.46875 464.941406 392.074219 C 464.328125 392.046875 463.710938 392.019531 463.1875 391.996094 C 457.9375 392.917969 452.199219 392.925781 445.683594 392.9375 C 444.671875 392.9375 443.636719 392.941406 442.566406 392.945312 C 434.234375 392.988281 424.894531 392.972656 416.058594 392.777344 C 407.074219 392.574219 398.582031 392.191406 392.101562 391.5 C 379.714844 390.175781 369.566406 388.03125 361.722656 384.25 C 353.40625 380.234375 347.695312 374.472656 344.722656 366.097656 C 342.164062 365.183594 339.558594 363.832031 337.421875 362.011719 C 334.476562 359.511719 332.351562 356.175781 332.09375 351.910156 C 332.054688 351.292969 332.070312 350.71875 332.132812 350.183594 C 332.441406 347.480469 333.773438 345.621094 335.675781 344.382812 C 337.21875 343.375 339.039062 342.917969 340.863281 342.808594 C 341.882812 342.746094 342.894531 342.789062 343.839844 342.898438 C 348.902344 343.476562 354.046875 344.367188 359.160156 345.253906 C 367.722656 346.738281 376.210938 348.210938 383.46875 348.058594 C 393.929688 347.84375 404.394531 347.632812 414.855469 347.421875 C 438.957031 346.933594 463.058594 346.445312 487.15625 345.910156 C 491.554688 345.808594 494.179688 345.832031 497.09375 346.878906 C 499.933594 347.902344 502.375 349.6875 506.316406 353.074219 C 534.457031 377.296875 551.980469 388.9375 579.894531 407.476562 C 583.402344 409.804688 587.117188 412.273438 593.171875 416.320312 C 599.695312 420.53125 605.84375 424.609375 611.746094 428.523438 C 619.984375 433.988281 627.730469 439.125 635.277344 443.816406 C 635.355469 443.863281 635.433594 443.910156 635.507812 443.957031 C 660.367188 459.386719 683.085938 469.921875 714.109375 471.175781 Z M 126.902344 262.003906 C 127.835938 263.191406 127.628906 264.910156 126.441406 265.84375 C 125.253906 266.777344 123.535156 266.574219 122.601562 265.386719 L 106.449219 244.804688 C 105.515625 243.617188 105.722656 241.898438 106.90625 240.964844 C 108.09375 240.03125 109.8125 240.238281 110.746094 241.425781 Z M 663.449219 589.765625 C 661.960938 589.511719 660.960938 588.101562 661.214844 586.613281 C 661.46875 585.121094 662.882812 584.121094 664.371094 584.375 C 668.949219 585.171875 673.597656 585.792969 678.320312 586.226562 C 683.109375 586.664062 688.019531 586.917969 693.0625 586.972656 C 694.566406 586.984375 695.777344 588.214844 695.765625 589.722656 C 695.753906 591.226562 694.523438 592.441406 693.019531 592.429688 C 687.808594 592.371094 682.75 592.109375 677.832031 591.660156 C 672.847656 591.207031 668.058594 590.570312 663.449219 589.765625 Z M 284.15625 397.394531 C 282.90625 405.882812 292.640625 408.738281 303.355469 411.878906 C 303.417969 411.898438 303.480469 411.917969 303.542969 411.941406 C 305.609375 412.546875 307.703125 413.160156 309.785156 413.828125 C 303.089844 403.496094 298.121094 397.683594 284.15625 397.394531 Z M 300.890625 420.265625 C 286.160156 415.945312 272.773438 412.019531 275.425781 396.429688 L 275.382812 396.382812 C 275.292969 396.300781 275.203125 396.210938 275.121094 396.121094 L 195.199219 315.824219 C 187.703125 322.949219 180.109375 328.566406 173.589844 332.042969 C 164.722656 336.773438 157.164062 337.660156 153.023438 333.582031 C 152.253906 332.824219 151.65625 331.945312 151.21875 330.957031 L 85.164062 246.808594 C 81.480469 242.910156 81.105469 236.792969 83.5 229.992188 C 85.582031 224.082031 89.847656 217.402344 95.800781 211.351562 L 95.828125 211.324219 L 95.816406 211.316406 C 95.890625 211.246094 95.960938 211.175781 96.039062 211.113281 C 101.933594 205.183594 108.453125 200.894531 114.257812 198.746094 C 121.015625 196.246094 127.132812 196.53125 131.085938 200.164062 L 218 265.960938 C 218.09375 266.027344 218.179688 266.101562 218.265625 266.175781 C 218.464844 266.339844 218.660156 266.515625 218.847656 266.699219 C 222.988281 270.777344 222.222656 278.347656 217.632812 287.289062 C 214.1875 294 208.542969 301.859375 201.34375 309.613281 L 280.054688 388.695312 C 303.460938 387.628906 308.9375 396.230469 319.242188 412.414062 C 320.910156 415.039062 322.722656 417.882812 324.75 420.882812 C 325.773438 422.273438 325.914062 424.203125 324.949219 425.765625 C 323.683594 427.816406 320.996094 428.453125 318.945312 427.183594 C 313.976562 424.113281 307.394531 422.167969 301.089844 420.320312 C 301.023438 420.304688 300.957031 420.285156 300.890625 420.265625 Z M 182.644531 290.828125 L 195.175781 303.417969 C 201.726562 296.332031 206.808594 289.273438 209.867188 283.316406 C 212.625 277.941406 213.800781 274.070312 212.746094 272.953125 L 212.46875 272.746094 C 211.109375 272.015625 207.402344 273.265625 202.386719 275.941406 C 196.511719 279.074219 189.582031 284.222656 182.644531 290.828125 Z M 189.035156 309.632812 L 176.519531 297.058594 C 170.054688 304.074219 165.035156 311.0625 162.007812 316.960938 C 159.730469 321.394531 158.535156 324.800781 158.773438 326.488281 C 158.933594 326.765625 159.058594 327.054688 159.148438 327.351562 C 160.25 328.433594 164.117188 327.203125 169.484375 324.339844 C 175.304688 321.234375 182.164062 316.148438 189.035156 309.632812 Z M 173.351562 287.699219 L 173.355469 287.699219 L 173.363281 287.707031 C 181.902344 279.035156 190.800781 272.230469 198.28125 268.238281 C 200.046875 267.296875 201.757812 266.507812 203.402344 265.878906 L 125.664062 207.035156 L 125.667969 207.027344 C 125.519531 206.914062 125.375 206.792969 125.238281 206.65625 C 123.9375 205.375 120.988281 205.585938 117.269531 206.964844 C 112.585938 208.695312 107.21875 212.261719 102.246094 217.257812 C 102.171875 217.347656 102.09375 217.429688 102.011719 217.511719 L 102.003906 217.503906 C 96.980469 222.613281 93.429688 228.121094 91.746094 232.902344 C 90.464844 236.539062 90.277344 239.433594 91.46875 240.761719 C 91.636719 240.914062 91.792969 241.085938 91.941406 241.273438 L 152.066406 317.867188 C 152.652344 316.300781 153.378906 314.671875 154.238281 312.992188 C 158.085938 305.5 164.671875 296.574219 173.105469 287.96875 C 173.183594 287.875 173.265625 287.785156 173.351562 287.699219 Z M 501.410156 398.265625 C 507.390625 397.933594 513.511719 397.523438 520.105469 397.082031 C 527.875 396.5625 536.308594 395.996094 546.425781 395.4375 C 531.941406 385.316406 518.386719 374.996094 500.636719 359.71875 C 497.503906 357.023438 495.714844 355.65625 494.152344 355.09375 C 492.660156 354.558594 490.703125 354.5625 487.328125 354.636719 C 463.230469 355.171875 439.128906 355.660156 415.027344 356.148438 C 405.066406 356.351562 395.109375 356.550781 385.148438 356.757812 C 384.511719 366.039062 378.378906 369.339844 370.542969 369.953125 C 365.828125 370.320312 360.539062 369.503906 355.789062 368.589844 C 358.132812 371.84375 361.386719 374.378906 365.523438 376.375 C 372.359375 379.671875 381.585938 381.582031 393.027344 382.804688 C 399.355469 383.480469 407.566406 383.851562 416.230469 384.046875 C 425.035156 384.242188 434.289062 384.257812 442.53125 384.214844 C 443.589844 384.210938 444.648438 384.207031 445.683594 384.207031 C 457.1875 384.191406 465.894531 384.175781 472.757812 378.34375 C 474.601562 376.785156 477.359375 377.015625 478.917969 378.859375 C 480.359375 380.5625 480.269531 383.054688 478.789062 384.652344 C 483.375 385.652344 487.714844 387.53125 492.542969 391.316406 Z M 376.230469 356.535156 C 370.222656 356.050781 363.972656 354.96875 357.691406 353.878906 C 352.691406 353.015625 347.664062 352.144531 342.847656 351.589844 C 342.34375 351.535156 341.835938 351.507812 341.378906 351.535156 C 341.175781 351.550781 340.988281 351.566406 340.835938 351.589844 C 340.988281 353.0625 341.867188 354.316406 343.066406 355.335938 C 345.167969 357.125 348.097656 358.210938 350.511719 358.652344 C 351.648438 358.855469 352.914062 359.113281 354.253906 359.386719 C 359.164062 360.378906 365.164062 361.59375 369.894531 361.222656 C 373.011719 360.980469 375.523438 359.769531 376.230469 356.535156 Z M 504.492188 517.140625 C 509.546875 511.496094 514.597656 505.847656 519.644531 500.195312 C 521.734375 497.855469 531.34375 488.546875 542.375 478.535156 C 534.792969 480.191406 527.167969 480.957031 519.929688 481.683594 C 515.441406 482.132812 511.109375 482.566406 507.21875 483.171875 L 483.261719 486.914062 C 474.539062 488.277344 470.070312 492.65625 463.625 498.980469 C 463.207031 499.390625 462.785156 499.804688 462.382812 500.199219 C 462.242188 500.414062 462.097656 500.632812 461.953125 500.847656 C 466.125 500.597656 470.4375 501.152344 474.917969 502.375 C 484.054688 504.871094 493.804688 510.199219 504.492188 517.140625 Z M 456.390625 583.265625 C 452.28125 586.984375 447.652344 590.488281 442.992188 594.015625 C 439.117188 596.949219 435.222656 599.898438 431.992188 602.652344 C 431.699219 602.902344 431.386719 603.214844 431.074219 603.589844 L 430.953125 603.742188 C 431.953125 604.378906 433.199219 604.527344 434.488281 604.378906 C 436.980469 604.09375 439.535156 602.808594 441.347656 601.460938 C 442.28125 600.761719 443.230469 600.085938 444.230469 599.371094 C 448.027344 596.664062 452.664062 593.351562 455.367188 589.960938 C 457.042969 587.863281 457.796875 585.589844 456.390625 583.265625 Z M 586.375 422.339844 C 580.175781 418.355469 573.664062 414.277344 566.769531 410.152344 C 562.914062 407.84375 559.945312 406.171875 557.113281 405.1875 C 554.46875 404.265625 551.757812 403.898438 548.175781 404.09375 C 538.203125 404.636719 529.074219 405.25 520.6875 405.808594 C 493.84375 407.609375 474.699219 408.890625 441.601562 406.660156 C 437.488281 406.382812 435.242188 406.367188 433.648438 406.855469 C 432.152344 407.316406 430.585938 408.492188 427.933594 410.578125 C 413.101562 422.222656 391.992188 438.726562 370.886719 455.230469 C 363.0625 461.351562 355.238281 467.46875 347.414062 473.589844 C 352.464844 481.390625 349.542969 487.707031 343.644531 492.894531 C 340.054688 496.050781 335.351562 498.5625 331.023438 500.675781 C 334.84375 501.863281 338.96875 501.9375 343.480469 501.050781 C 350.933594 499.585938 359.464844 495.574219 369.355469 489.6875 C 374.796875 486.449219 381.597656 481.8125 388.667969 476.753906 C 395.671875 471.742188 403.125 466.167969 409.796875 461.113281 C 411.269531 460 410.332031 460.722656 412.316406 459.226562 C 421.515625 452.308594 428.476562 447.070312 430.46875 438.308594 C 430.996094 435.953125 433.332031 434.476562 435.6875 435.003906 C 438.039062 435.535156 439.515625 437.871094 438.988281 440.226562 C 438.003906 444.558594 436.304688 448.121094 434.03125 451.285156 L 442.464844 450.265625 C 443.511719 450.140625 444.515625 450.398438 445.339844 450.925781 C 448.117188 447.828125 449.898438 445.996094 452.574219 444.621094 C 455.253906 443.242188 458.230469 442.675781 463.410156 442.109375 C 495.796875 438.566406 514.1875 434.003906 539.96875 427.609375 C 548.171875 425.574219 557.101562 423.359375 566.847656 421.070312 C 571.503906 419.976562 575.265625 419.84375 579.191406 420.472656 C 581.53125 420.847656 583.835938 421.480469 586.375 422.339844 Z M 377.109375 539.570312 C 372.648438 543.636719 367.585938 547.46875 362.496094 551.324219 C 358.34375 554.46875 354.171875 557.625 350.6875 560.59375 C 350.359375 560.875 350.011719 561.222656 349.667969 561.636719 C 349.535156 561.796875 349.421875 561.945312 349.335938 562.074219 C 350.515625 562.960938 352.035156 563.175781 353.605469 562.996094 C 356.335938 562.679688 359.128906 561.277344 361.105469 559.804688 C 362.101562 559.0625 363.117188 558.339844 364.191406 557.570312 C 368.277344 554.65625 373.265625 551.09375 376.191406 547.425781 C 378.152344 544.96875 378.992188 542.292969 377.109375 539.570312 Z M 340.164062 478.753906 C 335.054688 481.976562 329.402344 484.863281 323.714844 487.765625 C 319.097656 490.121094 314.453125 492.492188 310.472656 494.820312 C 310.066406 495.058594 309.652344 495.34375 309.269531 495.667969 C 309.113281 495.800781 308.976562 495.925781 308.867188 496.035156 C 309.871094 497.121094 311.324219 497.601562 312.898438 497.695312 C 315.65625 497.867188 318.652344 496.976562 320.851562 495.878906 C 322.296875 495.15625 323.269531 494.691406 324.292969 494.207031 C 328.835938 492.046875 334.382812 489.410156 337.898438 486.320312 C 340.253906 484.25 341.539062 481.765625 340.164062 478.753906 Z M 340.164062 478.753906 " fill-opacity="1" fill-rule="nonzero"/></g></svg>